<?xml version="1.0" encoding="UTF-8"?>
<svg id="katman_1" xmlns="http://www.w3.org/2000/svg" viewBox="0 0 167.37 70.07">
    <defs>
        <style>
            .cls-1{fill:#305aa6;}.cls-1,.cls-2{stroke:#fff;stroke-miterlimit:10;stroke-width:.5px;}.cls-3{fill:#fff;}.cls-4{fill:#396bb3;}.cls-2{fill:#2e5aa6;}</style>
    </defs>
    <path class="cls-1"
        d="M68.75,38.08c0,11.46-7.94,16.45-15.42,16.45-8.38,0-14.85-6.14-14.85-15.94,0-10.37,6.78-16.45,15.36-16.45s14.91,6.46,14.91,15.94ZM44.17,38.4c0,6.78,3.9,11.9,9.41,11.9s9.41-5.06,9.41-12.03c0-5.25-2.62-11.9-9.28-11.9s-9.54,6.14-9.54,12.03Z" />
    <path class="cls-1"
        d="M97.93,52.67c-1.47.77-4.74,1.79-8.9,1.79-9.34,0-15.42-6.34-15.42-15.81s6.53-16.45,16.64-16.45c3.33,0,6.27.83,7.81,1.6l-1.28,4.35c-1.34-.77-3.46-1.47-6.53-1.47-7.1,0-10.94,5.25-10.94,11.71,0,7.17,4.61,11.58,10.75,11.58,3.2,0,5.31-.83,6.91-1.54l.96,4.22Z" />
    <path class="cls-1"
        d="M121.68,53.82l-.45-3.9h-.19c-1.73,2.43-5.06,4.61-9.47,4.61-6.27,0-9.47-4.42-9.47-8.9,0-7.49,6.66-11.58,18.62-11.52v-.64c0-2.56-.7-7.17-7.04-7.17-2.88,0-5.89.9-8.06,2.3l-1.28-3.71c2.56-1.66,6.27-2.75,10.18-2.75,9.47,0,11.78,6.46,11.78,12.67v11.58c0,2.69.13,5.31.51,7.42h-5.12ZM120.85,38.01c-6.14-.13-13.12.96-13.12,6.98,0,3.65,2.43,5.38,5.31,5.38,4.03,0,6.59-2.56,7.49-5.18.19-.58.32-1.22.32-1.79v-5.38Z" />
    <path class="cls-1"
        d="M135.12,53.82c.13-2.11.26-5.25.26-8V8.38h5.57v19.45h.13c1.98-3.46,5.57-5.7,10.56-5.7,7.68,0,13.12,6.4,13.06,15.81,0,11.07-6.98,16.57-13.89,16.57-4.48,0-8.06-1.73-10.37-5.82h-.19l-.26,5.12h-4.86ZM140.94,41.4c0,.7.13,1.41.26,2.05,1.09,3.9,4.35,6.59,8.45,6.59,5.89,0,9.41-4.8,9.41-11.9,0-6.21-3.2-11.52-9.22-11.52-3.84,0-7.42,2.62-8.58,6.91-.13.64-.32,1.41-.32,2.3v5.57Z" />
    <polygon class="cls-2" points="28.71 33.29 36.79 10.69 30.84 10.69 25.54 26.17 28.71 33.29" />
    <path class="cls-2"
        d="M21.84,37.09c-1.25,3.81-2.38,7.5-3.23,10.97h-.13c-.81-3.58-1.86-7.26-3.06-11.17-1.03,2.43-2.14,4.91-3.3,7.44l3.1,9.49h6.14l3.43-9.59c-1.05-2.46-2.04-4.83-2.96-7.14Z" />
    <polygon class="cls-2" points="12.23 26.7 7.16 10.69 1.15 10.69 8.72 33.9 12.23 26.7" />
    <path class="cls-4"
        d="M21.97,22.16l14.08,31.68h-6.02l-6.72-15.6c-1.86-4.28-3.46-8.13-4.61-11.84h-.13c-1.22,3.67-3.01,7.66-4.93,11.8l-7.3,15.65H.4l15.42-31.68h6.14Z" />
    <path class="cls-3"
        d="M36.43,54.09h-6.56l-6.79-15.75c-1.87-4.31-3.35-7.92-4.45-11.33-1.27,3.69-3.12,7.75-4.76,11.29l-7.36,15.8H0L15.67,21.91h6.46l14.3,32.18ZM30.2,53.59h5.47l-13.86-31.18h-5.83L.8,53.59h5.39l7.23-15.51c1.72-3.7,3.65-7.96,4.92-11.77l.06-.17h.49l.05.18c1.1,3.55,2.64,7.29,4.6,11.82l6.66,15.45Z" />
</svg>